# xmcd
#
# Track frame offsets:
#	150
#	11157
#	25862
#	35735
#	56242
#	70577
#	86077
#	95667
#	105635
#	116817
#	127905
#	139357
#	148145
#	163590
#	173725
#	185100
#	201782
#	213850
#	226032
#	241240
#	251815
#
# Disc length: 3475 seconds
# Revision: 0
# Processed by: cddbd v1.5.2PL0 Copyright (c) Steve Scherf et al.
# Submitted via: dBpowerAMP V12.0
#
DISCID=340d9115
DTITLE=Bobby Darin - Dream Lover (Live Comp)
DYEAR=1966
DGENRE=Pop
TTITLE0=La Mer (Beyond the Sea)
TTITLE1=clementine
TTITLE2=That's the Way Love Is
TTITLE3=I got a Woman - What's I Say -When the Saints
TTITLE4=Mack the Knife
TTITLE5=By Myself - When your Lover Has Gone
TTITLE6=Splish Splash
TTITLE7=Quenn of the Hop
TTITLE8=A Quarter to nine
TTITLE9=You're Nobody till Somebody Loves You
TTITLE10=The Girl Who Stood Beside Me
TTITLE11=Dream Lover
TTITLE12=This Could Be the Start of Something Big
TTITLE13=I wish I Were in Love Again
TTITLE14=Don't Rain on My Parade
TTITLE15=Toot Toot Tootsie Goodbye - Don't Worry 'bout Me
TTITLE16=Plain Jane
TTITLE17=Early in the Morning
TTITLE18=Swing Low Chariot
TTITLE19=If I Were a Carpenter
TTITLE20=That's All
EXTD=
EXTT0=
EXTT1=
EXTT2=
EXTT3=
EXTT4=
EXTT5=
EXTT6=
EXTT7=
EXTT8=
EXTT9=
EXTT10=
EXTT11=
EXTT12=
EXTT13=
EXTT14=
EXTT15=
EXTT16=
EXTT17=
EXTT18=
EXTT19=
EXTT20=
PLAYORDER=
